<svg width="18" height="18" viewBox="0 0 18 18" fill="none" xmlns="http://www.w3.org/2000/svg">
<path fill-rule="evenodd" clip-rule="evenodd" d="M8.60798 1.00233C8.86471 0.932818 9.1353 0.932818 9.39202 1.00233C9.69005 1.08302 9.94096 1.28001 10.1412 1.43724C10.1603 1.45225 10.179 1.4669 10.1972 1.48105L15.2839 5.43739C15.3035 5.45262 15.3229 5.4677 15.3422 5.48266C15.6247 5.70187 15.8735 5.89499 16.059 6.14572C16.2217 6.36576 16.3429 6.61364 16.4167 6.87719C16.5008 7.1775 16.5004 7.49251 16.5001 7.85007C16.5 7.87446 16.5 7.89905 16.5 7.92385V13.379C16.5 13.7743 16.5 14.1154 16.4771 14.3963C16.4528 14.6928 16.3994 14.9877 16.2548 15.2715C16.0391 15.6949 15.6948 16.0391 15.2715 16.2548C14.9877 16.3994 14.6928 16.4529 14.3963 16.4771C14.1153 16.5001 13.7743 16.5001 13.3789 16.5001H4.62108C4.22572 16.5001 3.88466 16.5001 3.60373 16.4771C3.30722 16.4529 3.01231 16.3994 2.72852 16.2548C2.30516 16.0391 1.96095 15.6949 1.74524 15.2715C1.60064 14.9877 1.54715 14.6928 1.52293 14.3963C1.49998 14.1154 1.49999 13.7743 1.5 13.379L1.5 7.92385C1.5 7.89905 1.49998 7.87446 1.49995 7.85006C1.49956 7.49251 1.49922 7.1775 1.58328 6.87719C1.65705 6.61364 1.77829 6.36575 1.94103 6.14572C2.12648 5.89499 2.37534 5.70186 2.65781 5.48265C2.67708 5.46769 2.69651 5.45262 2.71609 5.43739L7.80282 1.48105C7.82101 1.4669 7.83967 1.45225 7.85879 1.43724C8.05904 1.28001 8.30995 1.08302 8.60798 1.00233ZM8.99453 2.46121C8.93816 2.49887 8.86391 2.55605 8.72373 2.66507L3.637 6.62142C3.26344 6.91196 3.19388 6.97432 3.14701 7.03769C3.09276 7.11104 3.05235 7.19366 3.02776 7.28151C3.00652 7.35741 3 7.45061 3 7.92385V13.3501C3 13.7825 3.00058 14.0617 3.01795 14.2742C3.03459 14.4779 3.06285 14.5535 3.08175 14.5905C3.15365 14.7317 3.26839 14.8464 3.40951 14.9183C3.44659 14.9372 3.52213 14.9655 3.72588 14.9821C3.93838 14.9995 4.21759 15.0001 4.65 15.0001H13.35C13.7824 15.0001 14.0616 14.9995 14.2741 14.9821C14.4779 14.9655 14.5534 14.9372 14.5905 14.9183C14.7316 14.8464 14.8463 14.7317 14.9183 14.5905C14.9371 14.5535 14.9654 14.4779 14.9821 14.2742C14.9994 14.0617 15 13.7825 15 13.3501V7.92385C15 7.45061 14.9935 7.35741 14.9722 7.28151C14.9476 7.19366 14.9072 7.11103 14.853 7.03769C14.8061 6.97432 14.7366 6.91196 14.363 6.62142L9.27627 2.66507C9.13609 2.55605 9.06184 2.49887 9.00547 2.46121C9.00356 2.45993 9.00174 2.45872 9 2.45758C8.99826 2.45872 8.99644 2.45993 8.99453 2.46121Z" fill="white" fill-opacity="0.5"/>
</svg>
